<?xml version="1.0" encoding="us-ascii" standalone="no"?><svg xmlns="http://www.w3.org/2000/svg" xmlns:xlink="http://www.w3.org/1999/xlink" contentStyleType="text/css" height="1240px" preserveAspectRatio="none" style="width:599px;height:1240px;background:#FFFFFF;" version="1.1" viewBox="0 0 599 1240" width="599px" zoomAndPan="magnify"><defs/><g><text fill="#000000" font-family="sans-serif" font-size="14" font-weight="bold" lengthAdjust="spacing" textLength="367" x="109.25" y="24.5332">LLM-Powered Climate Risk Scenario Analysis System</text><!--entity UserQuery--><g id="elem_UserQuery"><rect fill="#FFE4B5" height="90.4375" rx="2.5" ry="2.5" style="stroke:#2E86AB;stroke-width:0.5;" width="131" x="100.5" y="417.6094"/><text fill="#000000" font-family="sans-serif" font-size="14" lengthAdjust="spacing" textLength="72" x="110.5" y="442.1426">User Query</text><text fill="#000000" font-family="sans-serif" font-size="14" lengthAdjust="spacing" textLength="111" x="110.5" y="459.752">'What if California</text><text fill="#000000" font-family="sans-serif" font-size="14" lengthAdjust="spacing" textLength="89" x="110.5" y="477.3613">bans gas cars</text><text fill="#000000" font-family="sans-serif" font-size="14" lengthAdjust="spacing" textLength="62" x="110.5" y="494.9707">by 2030?'</text></g><!--entity Parser--><g id="elem_Parser"><rect fill="#E8F4F8" height="108.0469" rx="2.5" ry="2.5" style="stroke:#2E86AB;stroke-width:0.5;" width="165" x="70.5" y="585.6094"/><text fill="#000000" font-family="sans-serif" font-size="14" lengthAdjust="spacing" textLength="145" x="80.5" y="610.1426">PolicyParameterParser</text><text fill="#000000" font-family="sans-serif" font-size="14" lengthAdjust="spacing" textLength="111" x="80.5" y="627.752">&#8226; Actor: California</text><text fill="#000000" font-family="sans-serif" font-size="14" lengthAdjust="spacing" textLength="81" x="80.5" y="645.3613">&#8226; Action: ban</text><text fill="#000000" font-family="sans-serif" font-size="14" lengthAdjust="spacing" textLength="103" x="80.5" y="662.9707">&#8226; Timeline: 2030</text><text fill="#000000" font-family="sans-serif" font-size="14" lengthAdjust="spacing" textLength="126" x="80.5" y="680.5801">&#8226; Confidence: 100%</text></g><!--entity Framework--><g id="elem_Framework"><rect fill="#E8F4F8" height="108.0469" rx="2.5" ry="2.5" style="stroke:#2E86AB;stroke-width:0.5;" width="215" x="45.5" y="771.6094"/><text fill="#000000" font-family="sans-serif" font-size="14" lengthAdjust="spacing" textLength="195" x="55.5" y="796.1426">GenericPolicyModelFramework</text><text fill="#000000" font-family="sans-serif" font-size="14" lengthAdjust="spacing" textLength="160" x="55.5" y="813.752">&#8226; Transport Electrification</text><text fill="#000000" font-family="sans-serif" font-size="14" lengthAdjust="spacing" textLength="104" x="55.5" y="831.3613">&#8226; Carbon Pricing</text><text fill="#000000" font-family="sans-serif" font-size="14" lengthAdjust="spacing" textLength="129" x="55.5" y="848.9707">&#8226; Renewable Energy</text><text fill="#000000" font-family="sans-serif" font-size="14" lengthAdjust="spacing" textLength="151" x="55.5" y="866.5801">&#8226; Fossil Fuel Regulation</text></g><!--entity Models--><g id="elem_Models"><rect fill="#E8F4F8" height="108.0469" rx="2.5" ry="2.5" style="stroke:#2E86AB;stroke-width:0.5;" width="159" x="73.5" y="957.6094"/><text fill="#000000" font-family="sans-serif" font-size="14" lengthAdjust="spacing" textLength="125" x="83.5" y="982.1426">Quantitative Models</text><text fill="#000000" font-family="sans-serif" font-size="14" lengthAdjust="spacing" textLength="118" x="83.5" y="999.752">&#8226; S-curve adoption</text><text fill="#000000" font-family="sans-serif" font-size="14" lengthAdjust="spacing" textLength="129" x="83.5" y="1017.3613">&#8226; Sectoral multipliers</text><text fill="#000000" font-family="sans-serif" font-size="14" lengthAdjust="spacing" textLength="88" x="83.5" y="1034.9707">&#8226; GDP scaling</text><text fill="#000000" font-family="sans-serif" font-size="14" lengthAdjust="spacing" textLength="139" x="83.5" y="1052.5801">&#8226; Employment impacts</text></g><!--entity Analyzer--><g id="elem_Analyzer"><rect fill="#E8F4F8" height="90.4375" rx="2.5" ry="2.5" style="stroke:#2E86AB;stroke-width:0.5;" width="185" x="255.5" y="1143.6094"/><text fill="#000000" font-family="sans-serif" font-size="14" lengthAdjust="spacing" textLength="165" x="265.5" y="1168.1426">IntegratedClimateAnalyzer</text><text fill="#000000" font-family="sans-serif" font-size="14" lengthAdjust="spacing" textLength="113" x="265.5" y="1185.752">&#8226; NGFS alignment</text><text fill="#000000" font-family="sans-serif" font-size="14" lengthAdjust="spacing" textLength="72" x="265.5" y="1203.3613">&#8226; Validation</text><text fill="#000000" font-family="sans-serif" font-size="14" lengthAdjust="spacing" textLength="132" x="265.5" y="1220.9707">&#8226; Confidence scoring</text></g><!--entity LLM--><g id="elem_LLM"><rect fill="#FFE4B5" height="108.0469" rx="2.5" ry="2.5" style="stroke:#2E86AB;stroke-width:0.5;" width="158" x="198" y="45.6094"/><text fill="#000000" font-family="sans-serif" font-size="14" lengthAdjust="spacing" textLength="97" x="208" y="70.1426">LLM Interpreter</text><text fill="#000000" font-family="sans-serif" font-size="14" lengthAdjust="spacing" textLength="127" x="208" y="87.752">&#8226; OpenAI GPT-3.5/4</text><text fill="#000000" font-family="sans-serif" font-size="14" lengthAdjust="spacing" textLength="97" x="208" y="105.3613">&#8226; Ollama (local)</text><text fill="#000000" font-family="sans-serif" font-size="14" lengthAdjust="spacing" textLength="130" x="208" y="122.9707">&#8226; Context generation</text><text fill="#000000" font-family="sans-serif" font-size="14" lengthAdjust="spacing" textLength="138" x="208" y="140.5801">&#8226; Result interpretation</text></g><!--entity Results--><g id="elem_Results"><rect fill="#E8F4F8" height="108.0469" rx="2.5" ry="2.5" style="stroke:#2E86AB;stroke-width:0.5;" width="132" x="139" y="231.6094"/><text fill="#000000" font-family="sans-serif" font-size="14" lengthAdjust="spacing" textLength="96" x="149" y="256.1426">Web UI Results</text><text fill="#000000" font-family="sans-serif" font-size="14" lengthAdjust="spacing" textLength="86" x="149" y="273.752">&#8226; Risk metrics</text><text fill="#000000" font-family="sans-serif" font-size="14" lengthAdjust="spacing" textLength="95" x="149" y="291.3613">&#8226; Visualizations</text><text fill="#000000" font-family="sans-serif" font-size="14" lengthAdjust="spacing" textLength="112" x="149" y="308.9707">&#8226; Cascade effects</text><text fill="#000000" font-family="sans-serif" font-size="14" lengthAdjust="spacing" textLength="111" x="149" y="326.5801">&#8226; Feedback loops</text></g><g id="elem_GMN16"><path d="M391.5,62.1094 L391.5,95.6094 L356.37,99.6094 L391.5,103.6094 L391.5,137.5156 A0,0 0 0 0 391.5,137.5156 L592.5,137.5156 A0,0 0 0 0 592.5,137.5156 L592.5,72.1094 L582.5,62.1094 L391.5,62.1094 A0,0 0 0 0 391.5,62.1094 " fill="#FEFFDD" style="stroke:#181818;stroke-width:0.5;"/><path d="M582.5,62.1094 L582.5,72.1094 L592.5,72.1094 L582.5,62.1094 " fill="#FEFFDD" style="stroke:#181818;stroke-width:0.5;"/><text fill="#000000" font-family="sans-serif" font-size="13" lengthAdjust="spacing" textLength="88" x="397.5" y="80.6045">Model Options:</text><text fill="#000000" font-family="sans-serif" font-size="13" lengthAdjust="spacing" textLength="180" x="397.5" y="96.9561">&#8226; GPT-3.5: 5-10s, $0.008/query</text><text fill="#000000" font-family="sans-serif" font-size="13" lengthAdjust="spacing" textLength="169" x="397.5" y="113.3076">&#8226; GPT-4: 15-30s, $0.12/query</text><text fill="#000000" font-family="sans-serif" font-size="13" lengthAdjust="spacing" textLength="138" x="397.5" y="129.6592">&#8226; Ollama: 30-120s, Free</text></g><g id="elem_GMN19"><path d="M6,1151.1094 L6,1226.5156 A0,0 0 0 0 6,1226.5156 L220,1226.5156 A0,0 0 0 0 220,1226.5156 L220,1161.1094 L210,1151.1094 L125.35,1151.1094 L140.78,1066.0694 L117.35,1151.1094 L6,1151.1094 A0,0 0 0 0 6,1151.1094 " fill="#FEFFDD" style="stroke:#181818;stroke-width:0.5;"/><path d="M210,1151.1094 L210,1161.1094 L220,1161.1094 L210,1151.1094 " fill="#FEFFDD" style="stroke:#181818;stroke-width:0.5;"/><text fill="#000000" font-family="sans-serif" font-size="13" lengthAdjust="spacing" textLength="193" x="12" y="1169.6045">Real-world calibrated parameters:</text><text fill="#000000" font-family="sans-serif" font-size="13" lengthAdjust="spacing" textLength="188" x="12" y="1185.9561">&#8226; Market maturity: S-curve k=0.4</text><text fill="#000000" font-family="sans-serif" font-size="13" lengthAdjust="spacing" textLength="144" x="12" y="1202.3076">&#8226; Ban effectiveness: 85%</text><text fill="#000000" font-family="sans-serif" font-size="13" lengthAdjust="spacing" textLength="169" x="12" y="1218.6592">&#8226; GDP scaling: State-specific</text></g><!--link UserQuery to Parser--><g id="link_UserQuery_Parser"><path d="M154.81,507.9694 C152.81,517.6794 151.03,527.9394 150,537.6094 C148.52,551.4394 148.25,566.3794 148.57,580.4294 " fill="none" id="UserQuery-to-Parser" style="stroke:#2E86AB;stroke-width:2.0;"/><polygon fill="#2E86AB" points="148.72,585.5594,152.4606,576.4485,148.5768,580.5614,144.4639,576.6776,148.72,585.5594" style="stroke:#2E86AB;stroke-width:2.0;"/><text fill="#000000" font-family="sans-serif" font-size="13" lengthAdjust="spacing" textLength="170" x="151" y="552.1045">Natural Language Processing</text></g><!--link Parser to Framework--><g id="link_Parser_Framework"><path d="M153,693.8294 C153,716.5294 153,743.0694 153,766.2994 " fill="none" id="Parser-to-Framework" style="stroke:#2E86AB;stroke-width:2.0;"/><polygon fill="#2E86AB" points="153,771.5094,157,762.5094,153,766.5094,149,762.5094,153,771.5094" style="stroke:#2E86AB;stroke-width:2.0;"/><text fill="#000000" font-family="sans-serif" font-size="13" lengthAdjust="spacing" textLength="131" x="154" y="738.1045">Structured Parameters</text></g><!--link Framework to Models--><g id="link_Framework_Models"><path d="M153,879.8294 C153,902.5294 153,929.0694 153,952.2994 " fill="none" id="Framework-to-Models" style="stroke:#2E86AB;stroke-width:2.0;"/><polygon fill="#2E86AB" points="153,957.5094,157,948.5094,153,952.5094,149,948.5094,153,957.5094" style="stroke:#2E86AB;stroke-width:2.0;"/><text fill="#000000" font-family="sans-serif" font-size="13" lengthAdjust="spacing" textLength="158" x="154" y="924.1045">Route to Appropriate Model</text></g><!--link Models to Analyzer--><g id="link_Models_Analyzer"><path d="M162.75,1065.6494 C167.97,1082.5294 175.92,1100.2594 188,1113.6094 C193.29,1119.4494 220.22,1132.5694 250.52,1146.1694 " fill="none" id="Models-to-Analyzer" style="stroke:#2E86AB;stroke-width:2.0;"/><polygon fill="#2E86AB" points="255.41,1148.3494,248.8251,1141.0255,250.8451,1146.3094,245.5612,1148.3294,255.41,1148.3494" style="stroke:#2E86AB;stroke-width:2.0;"/><text fill="#000000" font-family="sans-serif" font-size="13" lengthAdjust="spacing" textLength="132" x="189" y="1110.1045">Economic Impact Data</text></g><!--link Analyzer to LLM--><g id="link_Analyzer_LLM"><path d="M348,1143.3794 C348,1107.9994 348,1057.1194 348,1012.6094 C348,284.6094 348,284.6094 348,284.6094 C348,238.6694 342.78,226.3794 326,183.6094 C322.7,175.1994 318.61,166.6394 314.21,158.3794 " fill="none" id="Analyzer-to-LLM" style="stroke:#2E86AB;stroke-width:2.0;"/><polygon fill="#2E86AB" points="311.74,153.8194,312.5269,163.6367,314.1292,158.2116,319.5544,159.814,311.74,153.8194" style="stroke:#2E86AB;stroke-width:2.0;"/><text fill="#000000" font-family="sans-serif" font-size="13" lengthAdjust="spacing" textLength="116" x="349" y="645.1045">Quantitative Results</text></g><!--link LLM to Results--><g id="link_LLM_Results"><path d="M221.7,153.6794 C214.88,162.9694 208.94,173.0694 205,183.6094 C200.03,196.9194 198.21,211.9294 198.04,226.2194 " fill="none" id="LLM-to-Results" style="stroke:#2E86AB;stroke-width:2.0;"/><polygon fill="#2E86AB" points="198.05,231.4494,202.0243,222.438,198.0357,226.4494,194.0243,222.4608,198.05,231.4494" style="stroke:#2E86AB;stroke-width:2.0;"/><text fill="#000000" font-family="sans-serif" font-size="13" lengthAdjust="spacing" textLength="115" x="206" y="198.1045">Interpreted Analysis</text></g><!--link Results to UserQuery--><g id="link_Results_UserQuery"><path d="M193.09,340.0694 C187.94,363.1494 181.96,389.9694 176.93,412.5394 " fill="none" id="Results-to-UserQuery" style="stroke:#2E86AB;stroke-width:2.0;"/><polygon fill="#2E86AB" points="175.81,417.5894,181.6671,409.6714,176.8947,412.7084,173.8576,407.936,175.81,417.5894" style="stroke:#2E86AB;stroke-width:2.0;"/><text fill="#000000" font-family="sans-serif" font-size="13" lengthAdjust="spacing" textLength="120" x="187" y="384.1045">Interactive Response</text></g><!--SRC=[VLNRRjiu47tNLypsWhP0bIgElJ04x1QEAna1ajIrq_ObBpGrLWXJf9QachfF-otxQVsI3YLATXP6_MGF3yySdZca_oXmAnJ2AflVpMuNrnbmoQoD8hiJgcQ6LR1XV5SQtQXYhgKsy3nlFqS8WzmnLKgy_3yqc-RZV7eIgas19i16sVJFsUKHZ1cZ7t-xUFSW-4wXjJ2A8YUSHBY-lecN-X4D5Z2NecAEpYNi3jOS5JD2mqmnkRV2mdfl7LPHDCY1Pvyj6lZKeDdVgrTV7vW3iOKvasAhZHBiNcsOib0o2vmPIp_tC4ekalUldW7L_EvsixSd6rzEZgcNMWg-NthnwD3G5qBVgv___WSpxhH9d_G9PQ5LIjwhhd0dAfGqgBHjsjNcMcr5WOfJzJn9NhP2ElB1-ICL2rHe1E_4tEW2PUu5FMgp2pqCdR3Mna4cQPiHMy6Prn7QCRFH2fR48LJPrLR4-SWsH9yHURdlghcsLaZ86vI4A1lPihJoXfQd57vgcA9H4leRGglGTeJhc3U6QgpGzK7G6hrvJ4BLI2TgAT04_EB34YmdJtkTMLLBlQzGqLIhcd5dMpLTZrDIhfJ3qb22Yf2aDZe_-h7TBl8r47-fF6TN-qA_YsE_Xl6G5cr8Izkp9phLbH8ClhEfZGzAn_EnHZMxWiNoBhuucxmRXwgKh6BmMcewvvkXeyFl3ae_wICbAxJa48YU-J0Et_14OB_Y1ZvVXNt1q_OcKNvf_A7oHTY6ploZfRDzICZt0W6tMw8BnHonyAy8IAthplb0FPWG7IvG7F_TfpY5M-OQF-9hKjQm4Yb-cjEj9pUZ0FBuGwnIM3lJSDf5hy1mvMnqG7Xy67mAAztGA-7eQQXhesiZ_AFHhaO1u-73p5B8k5Qw4XoksXp11-PODAnxiFSqXITP3gUD_9A7zATFZwPT3AzJr2zxwC6N0AQcWR8crp6Ab2R9HfGF3lJMTu-WEm4bfvrCIeNsLdG9Ic4IdoVsBRn8pf9a-kuVptu46TDhCeal0k9yz0JGnIw5YoG-7tb8RX0ZL0Lu6K7CHZkdAw-cyv3shf39cEoN1VXxkMcl5jJ3V7gDDypiq47bnoxSFXsk_kwlv6mSG9TCXO2H4_u_88Nfv6L_XCFTzrcWFh6jaVl7xA3p5m00]--></g></svg>